<?xml version="1.0" encoding="iso-8859-1"?><!DOCTYPE svg PUBLIC "-//W3C//DTD SVG 1.1//EN" "http://www.w3.org/Graphics/SVG/1.1/DTD/svg11.dtd"><svg viewBox="0 0 800 800" xmlns="http://www.w3.org/2000/svg" xmlns:xlink="http://www.w3.org/1999/xlink"><style>:root>svg{display:none}:root>svg:target{display:block}</style><svg viewBox="0 0 240.811 240.811" style="enable-background:new 0 0 240.811 240.811" xml:space="preserve" id="arrow-down" xmlns="http://www.w3.org/2000/svg"><path d="m220.088 57.667-99.671 99.695-99.671-99.707a12.147 12.147 0 0 0-17.191 0c-4.74 4.752-4.74 12.451 0 17.203l108.261 108.297c4.74 4.752 12.439 4.752 17.179 0L237.256 74.859c4.74-4.752 4.74-12.463 0-17.215-4.728-4.729-12.428-4.729-17.168.023z" fill="currentColor"/></svg><svg xml:space="preserve" viewBox="0 0 512 512" id="fb" xmlns="http://www.w3.org/2000/svg"><path d="M256 0C114.609 0 0 114.609 0 256s114.609 256 256 256 256-114.609 256-256S397.391 0 256 0zm0 472c-119.297 0-216-96.703-216-216S136.703 40 256 40s216 96.703 216 216-96.703 216-216 216z" fill="currentColor"/><path fill-rule="evenodd" d="M316.75 216.812h-44.531v-32.5c0-9.969 10.312-12.281 15.125-12.281h28.766v-43.859L283.141 128c-44.984 0-55.25 32.703-55.25 53.672v35.141H195.25V262h32.641v122h44.328V262h37.656l6.875-45.188z" clip-rule="evenodd" fill="currentColor"/></svg><svg viewBox="0 0 490.992 490.992" style="enable-background:new 0 0 490.992 490.992" xml:space="preserve" id="gears" xmlns="http://www.w3.org/2000/svg"><g fill="currentColor"><path d="M182.001 396.491c48.248 0 87.5-39.252 87.5-87.5s-39.252-87.5-87.5-87.5-87.5 39.252-87.5 87.5 39.253 87.5 87.5 87.5zm0-160c39.977 0 72.5 32.523 72.5 72.5s-32.523 72.5-72.5 72.5-72.5-32.523-72.5-72.5 32.524-72.5 72.5-72.5z"/><path d="M77.501 308.991c0-57.622 46.878-104.5 104.5-104.5 15.674 0 30.742 3.383 44.785 10.055a7.501 7.501 0 0 0 6.437-13.549c-16.07-7.635-33.303-11.506-51.222-11.506-65.893 0-119.5 53.607-119.5 119.5 0 27.129 8.863 52.704 25.63 73.958a7.487 7.487 0 0 0 5.893 2.855 7.499 7.499 0 0 0 5.883-12.145c-14.658-18.581-22.406-40.943-22.406-64.668zM280.004 254.215a7.5 7.5 0 0 0-3.556 9.993c6.671 14.043 10.053 29.11 10.053 44.783 0 57.622-46.878 104.5-104.5 104.5-23.732 0-46.099-7.752-64.682-22.418a7.5 7.5 0 1 0-9.293 11.775c21.257 16.776 46.837 25.643 73.975 25.643 65.893 0 119.5-53.607 119.5-119.5 0-17.917-3.871-35.149-11.504-51.22a7.5 7.5 0 0 0-9.993-3.556zM249.193 228.953a105.584 105.584 0 0 1 12.853 12.854 7.484 7.484 0 0 0 5.746 2.675 7.5 7.5 0 0 0 5.738-12.325 120.467 120.467 0 0 0-14.685-14.686 7.5 7.5 0 0 0-10.567.916 7.498 7.498 0 0 0 .915 10.566z"/><path d="m487.421 124.809-18.105-11.136a87.09 87.09 0 0 0-.14-11.711l17.799-11.617a7.5 7.5 0 0 0 3.18-8.086 111.711 111.711 0 0 0-14.352-33.376 7.497 7.497 0 0 0-8.057-3.254l-20.675 4.928a87.238 87.238 0 0 0-8.404-8.158l4.372-20.802a7.5 7.5 0 0 0-3.47-7.967c-5.69-3.428-11.017-6.114-16.283-8.213-5.271-2.101-10.985-3.815-17.469-5.241a7.498 7.498 0 0 0-7.999 3.396l-11.136 18.106a87.255 87.255 0 0 0-11.711.139L363.354 4.019a7.5 7.5 0 0 0-8.086-3.18 111.711 111.711 0 0 0-33.376 14.352 7.5 7.5 0 0 0-3.254 8.057l4.928 20.676a87.105 87.105 0 0 0-8.158 8.403l-20.802-4.372a7.5 7.5 0 0 0-7.967 3.47c-3.428 5.69-6.114 11.017-8.213 16.283-2.101 5.271-3.815 10.985-5.241 17.469a7.5 7.5 0 0 0 3.396 7.999l18.106 11.136a87.09 87.09 0 0 0 .14 11.711l-17.799 11.617a7.498 7.498 0 0 0-3.18 8.086c2.371 9.559 5.99 18.7 10.744 27.279L266.586 173.8a159.907 159.907 0 0 0-9.8-5.551l.358-21.644a7.5 7.5 0 0 0-4.614-7.047c-14.908-6.212-30.698-10.421-46.932-12.508a7.505 7.505 0 0 0-7.512 3.797l-10.465 18.84a94.068 94.068 0 0 0-11.239 0l-10.465-18.84a7.508 7.508 0 0 0-7.512-3.797c-16.234 2.087-32.024 6.295-46.932 12.508a7.5 7.5 0 0 0-4.614 7.047l.358 21.644a159.907 159.907 0 0 0-9.8 5.551l-18.425-11.048a7.497 7.497 0 0 0-8.416.477 184.466 184.466 0 0 0-34.336 34.336 7.499 7.499 0 0 0-.477 8.416l11.048 18.425a159.687 159.687 0 0 0-5.55 9.8l-21.644-.358c-3.021-.049-5.865 1.777-7.047 4.614C6.356 253.37 2.148 269.16.061 285.394a7.5 7.5 0 0 0 3.797 7.512l18.84 10.465c-.112 1.823-.197 3.693-.197 5.62s.085 3.796.197 5.62l-18.84 10.465a7.5 7.5 0 0 0-3.797 7.512c2.087 16.234 6.295 32.024 12.508 46.932 1.182 2.836 3.983 4.642 7.047 4.614l21.644-.358a159.907 159.907 0 0 0 5.551 9.8l-11.048 18.425a7.499 7.499 0 0 0 .477 8.416 184.466 184.466 0 0 0 34.336 34.336 7.499 7.499 0 0 0 8.416.477l18.425-11.048a159.907 159.907 0 0 0 9.8 5.551l-.358 21.644a7.5 7.5 0 0 0 4.614 7.047c14.908 6.213 30.698 10.421 46.932 12.508a7.51 7.51 0 0 0 7.512-3.797l10.465-18.84c3.646.224 7.593.224 11.239 0l10.465 18.84a7.5 7.5 0 0 0 7.512 3.797c16.234-2.087 32.024-6.295 46.932-12.508a7.5 7.5 0 0 0 4.614-7.047l-.358-21.644a159.907 159.907 0 0 0 9.8-5.551l18.425 11.048a7.5 7.5 0 0 0 8.416-.477 184.466 184.466 0 0 0 34.336-34.336 7.499 7.499 0 0 0 .477-8.416l-11.048-18.425a159.907 159.907 0 0 0 5.551-9.8l21.644.358c3.081.017 5.865-1.778 7.047-4.614 6.213-14.908 10.421-30.698 12.508-46.932a7.5 7.5 0 0 0-3.797-7.512l-18.84-10.465c.112-1.823.197-3.692.197-5.62s-.085-3.797-.197-5.62l18.84-10.465a7.5 7.5 0 0 0 3.797-7.512c-2.087-16.234-6.295-32.024-12.508-46.932-1.182-2.836-3.992-4.639-7.047-4.614l-21.644.358a160.213 160.213 0 0 0-5.55-9.8l10.788-17.991c4.381 2.465 8.579 4.495 12.736 6.151 5.27 2.101 10.984 3.815 17.469 5.241a7.501 7.501 0 0 0 7.998-3.396l11.137-18.106c3.924.217 7.838.169 11.711-.14l11.617 17.8a7.5 7.5 0 0 0 8.086 3.18 111.768 111.768 0 0 0 33.375-14.352 7.502 7.502 0 0 0 3.255-8.057l-4.928-20.676a87.227 87.227 0 0 0 8.158-8.403l20.802 4.372a7.506 7.506 0 0 0 7.967-3.47c3.428-5.69 6.114-11.017 8.213-16.283 2.101-5.27 3.815-10.984 5.241-17.469a7.5 7.5 0 0 0-3.397-7.998zM318.306 249.282l21.156-.351a167.553 167.553 0 0 1 8.883 33.37l-18.483 10.268a7.499 7.499 0 0 0-3.842 7.038c.045.699.093 1.398.142 2.097.175 2.527.341 4.915.341 7.287s-.166 4.759-.341 7.286c-.048.699-.097 1.398-.142 2.098a7.5 7.5 0 0 0 3.842 7.038l18.483 10.268a167.553 167.553 0 0 1-8.883 33.37l-21.156-.35a7.508 7.508 0 0 0-6.847 4.174c-3.144 6.356-6.194 11.719-9.325 16.394a7.5 7.5 0 0 0-.2 8.03l10.779 17.976a169.492 169.492 0 0 1-24.428 24.428l-17.976-10.779a7.498 7.498 0 0 0-8.03.2c-4.675 3.131-10.038 6.181-16.394 9.325a7.5 7.5 0 0 0-4.174 6.847l.35 21.156a167.553 167.553 0 0 1-33.37 8.883l-10.268-18.483a7.5 7.5 0 0 0-7.038-3.842c-.7.045-1.398.093-2.098.142-2.527.175-4.914.341-7.286.341s-4.759-.166-7.286-.341c-.699-.048-1.398-.097-2.098-.142a7.473 7.473 0 0 0-7.038 3.842l-10.268 18.483a167.553 167.553 0 0 1-33.37-8.883l.35-21.156a7.5 7.5 0 0 0-4.174-6.847c-6.356-3.144-11.719-6.194-16.394-9.325a7.505 7.505 0 0 0-8.03-.2l-17.976 10.779a169.492 169.492 0 0 1-24.428-24.428l10.779-17.976a7.5 7.5 0 0 0-.2-8.03c-3.131-4.675-6.181-10.038-9.325-16.394-1.284-2.597-3.913-4.199-6.847-4.174l-21.156.35a167.553 167.553 0 0 1-8.883-33.37l18.483-10.268a7.499 7.499 0 0 0 3.842-7.038c-.045-.7-.093-1.398-.142-2.098-.175-2.527-.341-4.914-.341-7.286 0-2.373.166-4.76.341-7.287.048-.699.097-1.397.142-2.097a7.5 7.5 0 0 0-3.842-7.038l-18.483-10.268a167.486 167.486 0 0 1 8.883-33.37l21.156.351c2.895.033 5.563-1.577 6.847-4.174 3.143-6.354 6.193-11.717 9.325-16.395a7.5 7.5 0 0 0 .2-8.03l-10.779-17.976a169.492 169.492 0 0 1 24.428-24.428l17.976 10.779a7.499 7.499 0 0 0 8.03-.2c4.675-3.131 10.038-6.181 16.394-9.325a7.5 7.5 0 0 0 4.174-6.847l-.35-21.156a167.553 167.553 0 0 1 33.37-8.883l10.268 18.483a7.477 7.477 0 0 0 7.038 3.842c.7-.045 1.398-.093 2.098-.142 2.527-.175 4.914-.341 7.286-.341s4.759.166 7.286.341c.699.048 1.398.097 2.098.142a7.5 7.5 0 0 0 7.038-3.842l10.268-18.483a167.553 167.553 0 0 1 33.37 8.883l-.35 21.156a7.5 7.5 0 0 0 4.174 6.847c6.356 3.144 11.719 6.194 16.394 9.325a7.499 7.499 0 0 0 8.03.2l17.976-10.779a169.492 169.492 0 0 1 24.428 24.428l-10.779 17.976a7.5 7.5 0 0 0 .2 8.03c3.132 4.678 6.182 10.04 9.325 16.395 1.285 2.597 3.924 4.209 6.847 4.174zm-15.61-78.463 14.235-3.393a87.235 87.235 0 0 0 8.404 8.158l-3.167 15.068a184.457 184.457 0 0 0-19.472-19.833zm168.946-26.096c-1.231 3.088-2.715 6.229-4.495 9.506l-19.972-4.197a7.498 7.498 0 0 0-7.515 2.803c-3.609 4.75-7.74 9.004-12.276 12.641a7.497 7.497 0 0 0-2.604 7.59l4.723 19.815a96.718 96.718 0 0 1-19.289 8.295l-11.133-17.059a7.496 7.496 0 0 0-7.3-3.331c-5.763.791-11.691.863-17.622.214a7.502 7.502 0 0 0-7.204 3.526l-10.692 17.383c-3.602-.962-6.902-2.045-9.993-3.277-3.088-1.231-6.229-2.715-9.506-4.495l4.197-19.972a7.502 7.502 0 0 0-2.803-7.515c-4.75-3.608-9.003-7.739-12.642-12.277a7.495 7.495 0 0 0-7.59-2.604l-19.815 4.723a96.69 96.69 0 0 1-8.294-19.289l17.059-11.133a7.498 7.498 0 0 0 3.331-7.301c-.791-5.76-.863-11.688-.214-17.62a7.5 7.5 0 0 0-3.526-7.204l-17.383-10.692c.962-3.602 2.045-6.902 3.277-9.993 1.231-3.088 2.715-6.229 4.495-9.506l19.971 4.197a7.505 7.505 0 0 0 7.515-2.803 72.047 72.047 0 0 1 12.276-12.641 7.501 7.501 0 0 0 2.605-7.591L334.5 25.101a96.714 96.714 0 0 1 19.289-8.294l11.133 17.058a7.499 7.499 0 0 0 7.301 3.331c5.758-.79 11.687-.862 17.62-.214a7.504 7.504 0 0 0 7.204-3.526l10.692-17.383c3.602.962 6.902 2.045 9.993 3.277 3.088 1.231 6.229 2.715 9.506 4.495l-4.197 19.972a7.5 7.5 0 0 0 2.803 7.515c4.752 3.61 9.005 7.741 12.642 12.277a7.5 7.5 0 0 0 7.59 2.604l19.815-4.723a96.714 96.714 0 0 1 8.294 19.289l-17.059 11.133a7.498 7.498 0 0 0-3.331 7.301c.791 5.761.863 11.689.215 17.62a7.5 7.5 0 0 0 3.526 7.204l17.382 10.692c-.961 3.602-2.044 6.903-3.276 9.994z"/><path d="M399.589 64.868c-24.332-9.698-52.013 2.206-61.711 26.536-9.698 24.33 2.206 52.014 26.536 61.711a47.252 47.252 0 0 0 17.53 3.377c18.879 0 36.776-11.335 44.182-29.914 9.697-24.329-2.207-52.013-26.537-61.71zm12.602 56.157c-6.635 16.646-25.576 24.791-42.224 18.156-16.646-6.636-24.792-25.577-18.156-42.224 5.067-12.712 17.312-20.467 30.23-20.467 3.998 0 8.06.743 11.994 2.311 16.647 6.636 24.792 25.577 18.156 42.224z"/></g></svg><svg xml:space="preserve" style="enable-background:new 0 0 413.099 413.099" viewBox="0 0 413.099 413.099" id="geo" xmlns="http://www.w3.org/2000/svg"><path d="M206.549 0c-82.6 0-149.3 66.7-149.3 149.3 0 28.8 9.2 56.3 22 78.899l97.3 168.399c6.1 11 18.4 16.5 30 16.5 11.601 0 23.3-5.5 30-16.5l97.3-168.299c12.9-22.601 22-49.601 22-78.901C355.849 66.8 289.149 0 206.549 0zm0 193.4c-30 0-54.5-24.5-54.5-54.5s24.5-54.5 54.5-54.5 54.5 24.5 54.5 54.5c0 30.1-24.5 54.5-54.5 54.5z" fill="currentColor"/></svg><svg xml:space="preserve" viewBox="0 0 512 512" id="google" xmlns="http://www.w3.org/2000/svg"><path d="M256 0C114.609 0 0 114.609 0 256s114.609 256 256 256 256-114.609 256-256S397.391 0 256 0zm0 472c-119.297 0-216-96.703-216-216S136.703 40 256 40s216 96.703 216 216-96.703 216-216 216z" fill="currentColor"/><path d="M278.062 135.945c8.719-4.891 12.531-8.062 12.531-8.062h-83.281c-16.688 0-63.031 18.953-63.031 63.203 0 44.258 48.062 53.758 65.5 53.039-9.781 11.938-1.406 22.844 3.844 28.422 5.219 5.625 4.156 7.375-2.094 7.375-6.281 0-83.625.844-83.625 56.219s102.781 59.375 136.562 29.531 26.469-71 .344-89.594c-26.125-18.609-35.875-27.391-19.156-42.141s29.969-26.688 29.969-54.086c0-27.406-22.656-41.422-22.656-41.422s16.375 2.438 25.093-2.484zm-12.906 197.383c0 23.891-20.281 35.469-54.719 35.469-34.469 0-52.938-17.203-52.938-42.844 0-25.656 25.094-38.297 72.125-38.297 12.751 9.828 35.532 21.766 35.532 45.672zm-49.812-100.109c-41.469 0-60.281-96.898-11.5-96.898 37.968-1.423 66.531 96.898 11.5 96.898zm137.406-73.18v-31.516h-16.281v31.516h-31.875v16.359h31.875v31.57h16.281v-31.57h31.344v-16.359H352.75z" fill="currentColor"/></svg><svg xml:space="preserve" viewBox="0 0 512 512" id="in" xmlns="http://www.w3.org/2000/svg"><path d="M256 0C114.609 0 0 114.609 0 256s114.609 256 256 256 256-114.609 256-256S397.391 0 256 0zm0 472c-119.297 0-216-96.703-216-216S136.703 40 256 40s216 96.703 216 216-96.703 216-216 216z" fill="currentColor"/><path fill-rule="evenodd" d="M128.094 383.891h48v-192h-48v192zm192-192c-41.094.688-61.312 30.641-64 32v-32h-48v192h48v-112c0-4.109 10.125-37 48-32 20.344 1.328 31.312 28.234 32 32v112l47.812.219V251.188c-1.687-19.188-11.281-58.61-63.812-59.297zm-168-64c-13.25 0-24 10.734-24 24s10.75 24 24 24 24-10.734 24-24-10.75-24-24-24z" clip-rule="evenodd" fill="currentColor"/></svg><svg viewBox="0 0 432.4 432.4" style="enable-background:new 0 0 432.4 432.4" xml:space="preserve" id="lamp" xmlns="http://www.w3.org/2000/svg"><g fill="currentColor"><path d="M216.529 93.2c-61.2 0-111.2 50-111.2 111.2 0 32 14 62.8 37.6 83.6 17.6 17.6 16 55.2 15.6 55.6 0 2 .4 3.6 2 5.2 1.2 1.2 3.2 2 4.8 2h102c2 0 3.6-.8 4.8-2 1.2-1.2 2-3.2 2-5.2 0-.4-2-38 15.6-55.6l1.2-1.2c23.2-21.2 36.8-51.2 36.8-82.4 0-61.2-50-111.2-111.2-111.2zm64 184.4c-.4.4-1.2 1.2-1.2 1.6-15.6 16.8-18.4 44.4-18.8 57.6h-88.4c-.4-13.2-3.2-42-20-59.2-21.2-18.4-33.6-45.2-33.6-73.6 0-54 43.6-97.6 97.6-97.6s97.6 43.6 97.6 97.6c0 28.4-12 55.2-33.2 73.6z"/><path d="M216.129 121.6c-3.6 0-6.8 3.2-6.8 6.8 0 3.6 3.2 6.8 6.8 6.8 40.4 0 72.8 32.8 72.8 72.8 0 3.6 3.2 6.8 6.8 6.8 3.6 0 6.8-3.2 6.8-6.8.4-47.6-38.4-86.4-86.4-86.4zM260.529 358.4h-88.8c-9.2 0-16.8 7.6-16.8 16.8s7.6 16.8 16.8 16.8h88.4c9.6-.4 17.2-7.6 17.2-16.8 0-9.2-7.6-16.8-16.8-16.8zm0 19.6h-88.8c-1.6 0-3.2-1.2-3.2-3.2s1.2-3.2 3.2-3.2h88.4c1.6 0 3.2 1.2 3.2 3.2s-1.2 3.2-2.8 3.2zM247.329 398.8h-62.4c-9.2 0-16.8 7.6-16.8 16.8s7.6 16.8 16.8 16.8h62.4c9.2 0 16.8-7.6 16.8-16.8 0-9.6-7.6-16.8-16.8-16.8zm0 19.6h-62.4c-1.6 0-3.2-1.2-3.2-3.2s1.2-3.2 3.2-3.2h62.4c1.6 0 3.2 1.2 3.2 3.2s-1.6 3.2-3.2 3.2zM216.129 60c4 0 6.8-3.2 6.8-6.8V6.8c0-3.6-3.2-6.8-6.8-6.8-3.6 0-6.8 3.2-6.8 6.8v46.4c0 3.6 3.2 6.8 6.8 6.8zM329.329 34.4c-3.2-2.4-7.2-1.2-9.2 1.6l-25.6 38.4c-2.4 3.2-1.6 7.6 1.6 9.6 1.2.8 2.4 1.2 3.6 1.2 2.4 0 4.4-1.2 5.6-3.2l25.6-38.4c2.4-2.8 1.6-7.2-1.6-9.2zM134.929 83.6c1.2 0 2.4-.4 3.6-1.2 3.2-2 4-6.4 2-9.6l-24.8-38.8c-2-3.2-6.4-4-9.6-2s-4 6.4-2 9.6l24.8 38.8c1.6 2.4 3.6 3.2 6 3.2zM86.529 126l-40.4-22c-3.2-1.6-7.6-.4-9.2 2.8-2 3.2-.8 7.6 2.8 9.2l40.4 22c1.2.4 2 .8 3.2.8 2.4 0 4.8-1.2 6-3.6 1.6-3.2.4-7.6-2.8-9.2zM395.729 106.8c-1.6-3.2-6-4.4-9.2-2.8l-40.8 22c-3.2 1.6-4.4 6-2.8 9.2 1.2 2.4 3.6 3.6 6 3.6 1.2 0 2.4-.4 3.2-.8l40.8-22c3.2-1.6 4.4-6 2.8-9.2z"/></g></svg><svg xml:space="preserve" style="enable-background:new 0 0 134.4 134.4" viewBox="0 0 134.4 134.4" id="mail" xmlns="http://www.w3.org/2000/svg"><path d="M120.12 16.738H14.28c-4.2 0-7.56 1.682-10.5 4.626-.42.421-.84.421-1.26.841 0 .421-.42 1.262-.42 1.682C.84 25.989 0 28.512 0 31.036v72.329c0 7.99 6.3 14.298 14.28 14.298h105.84c7.98 0 14.28-6.308 14.28-14.298V31.036c0-7.99-6.3-14.298-14.28-14.298zm-105.84 8.41H119.7L71.4 62.995l-4.62 3.785-53.34-41.632h.84zM8.4 103.785V31.877l44.1 34.062-44.1 37.846zm6.72 5.467 44.1-38.267 5.46 4.205c.84.421 1.68.841 2.52.841.84 0 1.68-.421 2.52-.841l5.46-4.205 43.68 38.267H15.12zM126 103.364v.841L81.9 65.518 126 30.615v72.749z" fill="currentColor"/></svg><svg viewBox="0 0 508.52 508.52" style="enable-background:new 0 0 508.52 508.52" xml:space="preserve" id="msg" xmlns="http://www.w3.org/2000/svg"><path d="M254.26 31.782C113.845 31.782 0 124.27 0 238.369c0 59.497 31.147 112.987 80.696 150.681-9.312 24.059-25.108 55.524-51.901 87.688 50.82 0 116.197-6.674 166.572-37.567 18.942 3.687 38.584 5.784 58.893 5.784 140.415 0 254.26-92.487 254.26-206.586S394.675 31.782 254.26 31.782z" fill="currentColor"/></svg><svg style="enable-background:new 0 0 787.3 787.3" xml:space="preserve" viewBox="0 0 787.3 787.3" id="people" xmlns="http://www.w3.org/2000/svg"><g fill="currentColor"><path d="M393.3 172h.799c47.3 0 85.599-38.3 85.599-85.6 0-7.5-1-14.8-2.799-21.7-9.5-36.9-43-64.2-82.9-64.2h-.8c-47.3-.1-85.6 38.3-85.6 85.5 0 7.5 1 14.8 2.8 21.7 9.5 37 43 64.3 82.901 64.3z"/><path d="M394.1 172.5h-.8c-39.318 0-73.607-26.596-83.385-64.676A86.53 86.53 0 0 1 307.1 86c0-47.421 38.542-86 85.915-86H394c39.307 0 73.595 26.554 83.384 64.575a86.6 86.6 0 0 1 2.814 21.825c.001 47.475-38.623 86.1-86.098 86.1zM393.015 1C346.192 1 308.1 39.131 308.1 86c0 7.234.937 14.492 2.784 21.574 9.664 37.64 43.555 63.926 82.417 63.926h.8c46.923 0 85.099-38.176 85.099-85.1 0-7.233-.937-14.492-2.782-21.574C466.741 27.246 432.85 1 394 1h-.985zM483.8 207.9h-21.4L441 314.7h-25.301l-6.6-71.7c2-10.9 6.701-21.1 11.701-31.8 0 0 .898-1.9 1.398-2.9h-.299c.1-.1.1-.3.199-.4h-57c.1.1.1.2.2.4h-.101c.5 1 1.4 2.9 1.4 2.9 4.4 9.3 8.5 18.2 10.8 27.6.3 1.3.601 2.6.8 3.9l-6.6 72.1h-25.3l-21.4-106.8H303.5c-32.5 0-58.8 26.3-58.8 58.8v171.3c0 32.5 26.3 58.8 58.8 58.8h7.5v248.9c0 22.9 18.6 41.5 41.5 41.5 21.3 0 38.899-16.1 41.199-36.9 2.3 20.7 19.9 36.9 41.201 36.9 22.9 0 41.5-18.6 41.5-41.5V496.7h7.5c32.5 0 58.799-26.301 58.799-58.801V266.6c-.199-32.4-26.5-58.7-58.899-58.7zM615.4 172h.798c47.301 0 85.602-38.3 85.602-85.6 0-7.5-1-14.8-2.801-21.7-9.5-36.9-43-64.2-82.9-64.2h-.798C568 .5 529.699 38.8 529.699 86.1c0 7.5 1 14.8 2.801 21.7 9.5 36.9 43 64.2 82.9 64.2z"/><path d="M616.199 172.5h-.799c-39.307 0-73.596-26.554-83.385-64.576a86.522 86.522 0 0 1-2.816-21.825c0-47.476 38.625-86.1 86.102-86.1h.799c39.307 0 73.596 26.554 83.385 64.575a86.522 86.522 0 0 1 2.816 21.825c-.001 47.476-38.626 86.101-86.102 86.101zM615.3 1c-46.925 0-85.102 38.175-85.102 85.1 0 7.236.937 14.494 2.784 21.574 9.676 37.581 43.566 63.827 82.417 63.827h.799c46.925 0 85.102-38.176 85.102-85.1 0-7.236-.937-14.494-2.784-21.574C688.84 27.246 654.95 1 616.099 1h-.799zM705.9 207.9h-21.4l-21.4 106.8h-25.3l-6.602-71.7c2-10.9 6.701-21.1 11.701-31.8 0 0 .9-1.9 1.4-2.9h-.301c.1-.1.1-.3.199-.4h-57c.102.1.102.2.201.4h-.1c.5 1 1.398 2.9 1.398 2.9 4.4 9.3 8.5 18.2 10.801 27.6.301 1.3.6 2.6.801 3.9l-6.602 72.1h-23v123.3c0 29.601-14.898 55.8-37.6 71.4v236.3c0 22.9 18.6 41.5 41.5 41.5 21.301 0 38.9-16.1 41.201-36.9 2.299 20.7 19.9 36.9 41.199 36.9 22.9 0 41.5-18.6 41.5-41.5V496.7h7.5c32.5 0 58.801-26.301 58.801-58.801V266.6c-.198-32.4-26.497-58.7-58.897-58.7zM171.2 172h.8c47.3 0 85.6-38.3 85.6-85.6 0-7.5-1-14.8-2.8-21.7-9.5-36.9-43-64.2-82.9-64.2h-.8c-47.3 0-85.6 38.3-85.6 85.6 0 7.5 1 14.8 2.8 21.7 9.5 36.9 43 64.2 82.9 64.2z"/><path d="M172 172.5h-.8c-39.307 0-73.595-26.554-83.384-64.576A86.48 86.48 0 0 1 85 86.1C85 38.624 123.624 0 171.1 0h.8c39.307 0 73.596 26.554 83.385 64.575A86.538 86.538 0 0 1 258.1 86.4c0 47.475-38.625 86.1-86.1 86.1zM171.1 1C124.175 1 86 39.175 86 86.1a85.53 85.53 0 0 0 2.784 21.574c9.675 37.58 43.566 63.826 82.416 63.826h.8c46.924 0 85.1-38.176 85.1-85.1 0-7.234-.937-14.493-2.784-21.574C244.641 27.246 210.75 1 171.899 1h-.799zM216.6 438V314.7h-23L187 243c2-10.9 6.7-21.1 11.7-31.8 0 0 .9-1.9 1.4-2.9h-.3c.1-.1.1-.3.2-.4h-57c.1.1.1.2.2.4h-.1c.5 1 1.4 2.9 1.4 2.9 4.4 9.3 8.5 18.2 10.8 27.6.3 1.3.6 2.6.8 3.9l-6.6 72.1h-25.3L102.8 208H81.3c-32.5 0-58.8 26.3-58.8 58.8v171.3c0 32.5 26.3 58.8 58.8 58.8h7.5v248.9c0 22.9 18.6 41.5 41.5 41.5 21.3 0 38.9-16.1 41.2-36.9 2.3 20.7 19.9 36.9 41.2 36.9 22.9 0 41.5-18.6 41.5-41.5V509.4c-22.7-15.7-37.6-41.8-37.6-71.4z"/></g></svg><svg xml:space="preserve" style="enable-background:new 0 0 485.213 485.212" viewBox="0 0 485.213 485.212" id="phone" xmlns="http://www.w3.org/2000/svg"><path d="M242.607 0C108.629 0 .001 108.628.001 242.606c0 133.976 108.628 242.606 242.606 242.606s242.604-108.631 242.604-242.606C485.212 108.628 376.585 0 242.607 0zm128.112 353.989-19.425 19.429c-3.468 3.463-13.623 5.624-13.949 5.624-61.452.536-120.621-23.602-164.095-67.08-43.593-43.618-67.759-102.998-67.11-164.657 0-.028 2.224-9.892 5.689-13.324l19.424-19.427c7.108-7.141 20.762-10.368 30.327-7.168l4.086 1.363c9.537 3.197 19.55 13.742 22.185 23.457l9.771 35.862c2.635 9.743-.919 23.604-8.025 30.712l-12.97 12.972c12.734 47.142 49.723 84.138 96.873 96.903l12.965-12.975c7.141-7.141 20.997-10.692 30.719-8.061l35.857 9.806c9.717 2.67 20.26 12.62 23.456 22.154l1.363 4.145c3.168 9.538-.034 23.189-7.141 30.265z" fill="currentColor"/></svg><svg xml:space="preserve" style="enable-background:new 0 0 348.077 348.077" viewBox="0 0 348.077 348.077" id="phone-wc" xmlns="http://www.w3.org/2000/svg"><path d="m340.273 275.083-53.755-53.761c-10.707-10.664-28.438-10.34-39.518.744l-27.082 27.076a792.327 792.327 0 0 1-5.344-2.973c-17.102-9.476-40.509-22.464-65.14-47.113-24.704-24.701-37.704-48.144-47.209-65.257-1.003-1.813-1.964-3.561-2.913-5.221l18.176-18.149 8.936-8.947c11.097-11.1 11.403-28.826.721-39.521L73.39 8.194c-10.682-10.68-28.421-10.356-39.518.744l-15.15 15.237.414.411c-5.08 6.482-9.325 13.958-12.484 22.02C3.74 54.28 1.927 61.603 1.098 68.941-6 127.785 20.89 181.564 93.866 254.541c100.875 100.868 182.167 93.248 185.674 92.876 7.638-.913 14.958-2.738 22.397-5.627 7.992-3.122 15.463-7.361 21.941-12.43l.331.294 15.348-15.029c11.074-11.098 11.393-28.83.716-39.542z" fill="currentColor"/></svg><svg viewBox="0 0 512.001 512.001" style="enable-background:new 0 0 512.001 512.001" xml:space="preserve" id="rocket" xmlns="http://www.w3.org/2000/svg"><path d="M75.276 368.328a7.5 7.5 0 0 0-10.606 0l-25.501 25.501a7.5 7.5 0 0 0 0 10.606 7.5 7.5 0 0 0 10.606 0l25.501-25.501a7.5 7.5 0 0 0 0-10.606zM100.084 393.136a7.5 7.5 0 0 0-10.606 0l-25.501 25.501a7.5 7.5 0 0 0 0 10.606 7.5 7.5 0 0 0 10.606 0l25.501-25.501a7.5 7.5 0 0 0 0-10.606zM149.699 442.751a7.5 7.5 0 0 0-10.606 0l-25.501 25.501a7.5 7.5 0 0 0 0 10.606 7.5 7.5 0 0 0 10.606 0l25.501-25.501a7.5 7.5 0 0 0 0-10.606zM124.891 417.944a7.5 7.5 0 0 0-10.606 0l-25.501 25.501a7.5 7.5 0 0 0 0 10.606 7.5 7.5 0 0 0 10.606 0l25.501-25.501a7.5 7.5 0 0 0 0-10.606zM493.313.604l-156.958 45.88a7.487 7.487 0 0 0-3.199 1.896L228.265 153.271l-46.865 3.944c-66.587 5.604-129.28 34.713-176.53 81.963-9.945 9.945-3.733 26.967 10.262 28.189l91.08 7.956-9.436 9.437c-5.856 5.854-5.859 15.335 0 21.193l9.109 9.109-18.473 18.473c-7.235 7.234-7.235 19.007 0 26.241l64.815 64.815c7.234 7.235 19.008 7.235 26.241 0l18.472-18.472 8.62 8.62c6.12 6.121 16.069 6.1 22.17 0l8.948-8.948 7.956 91.079c.566 6.479 4.714 11.886 10.826 14.11 6.094 2.219 12.753.761 17.362-3.849 29.075-29.074 51.06-63.391 65.347-101.998a7.5 7.5 0 0 0-4.431-9.637 7.498 7.498 0 0 0-9.637 4.431c-13.53 36.563-34.352 69.063-61.886 96.597a1.54 1.54 0 0 1-2.638-.961l-9.051-103.622 91.792-91.792c-3.046 37.186-3.872 46.884-8.124 65.73a7.5 7.5 0 0 0 14.632 3.3c5.192-23.011 5.588-33.947 9.904-85.443l104.891-104.891a7.497 7.497 0 0 0 1.896-3.199l20.828-71.253.001-.002 25.052-85.704c3.231-11.052-7.066-21.31-18.085-18.083zM16.438 252.424a1.54 1.54 0 0 1-.96-2.638c44.748-44.748 104.121-72.315 167.18-77.623l29.17-2.455-91.767 91.767-103.623-9.051zm106.453 27.433 40.855 40.855-15.499 15.498c-16.185-16.185-37.23-37.21-40.865-40.844l15.509-15.509zm-3.439 85.149a19.112 19.112 0 0 0-2.5 3.096L98.018 349.17c-1.362-1.363-1.362-3.665 0-5.028l18.473-18.474 21.15 21.15-18.189 18.188zm17.304 16.57a4.473 4.473 0 0 1-6.33 0 4.481 4.481 0 0 1 0-6.33l149.499-149.499a4.48 4.48 0 0 1 6.33 0 4.474 4.474 0 0 1 0 6.33L185.986 332.346l-49.23 49.23zm31.104 32.408c-.895.894-1.959 1.028-2.514 1.028-.555 0-1.619-.134-2.514-1.028l-18.933-18.934a19.156 19.156 0 0 0 3.096-2.5l18.188-18.188 21.15 21.15-18.473 18.472zm49.262-9.852c-.016.016-.036.021-.053.035a.672.672 0 0 1-.903-.035l-40.375-40.377 15.498-15.499 40.854 40.855-15.021 15.021zm234.537-234.535L242.752 378.504l-40.854-40.855 95.331-95.331c6.871-6.871 8.19-18.62-.734-27.544-7.408-7.408-19.399-7.409-26.81 0l-95.332 95.332-40.855-40.855L342.405 60.344 407.552 41.3l63.148 63.149-19.041 65.148zm23.84-81.564-51.531-51.531 72.815-21.285-21.284 72.816z" fill="currentColor"/><path d="M381.911 130.093a49.824 49.824 0 0 0-14.763-10.208 7.5 7.5 0 1 0-6.173 13.671c22.293 10.068 27.56 39.396 10.328 56.627-13.643 13.642-35.84 13.642-49.482 0-17.242-17.242-11.997-46.547 10.328-56.627a7.5 7.5 0 0 0-6.173-13.671c-31.847 14.383-39.436 56.23-14.76 80.905 9.745 9.745 22.547 14.618 35.348 14.618 44.395 0 66.754-53.91 35.347-85.315z" fill="currentColor"/></svg><svg xml:space="preserve" viewBox="0 0 512 512" id="tw" xmlns="http://www.w3.org/2000/svg"><path d="M256 0C114.609 0 0 114.609 0 256c0 141.392 114.609 256 256 256 141.392 0 256-114.608 256-256C512 114.609 397.392 0 256 0zm0 472c-119.297 0-216-96.702-216-216 0-119.297 96.703-216 216-216 119.298 0 216 96.703 216 216 0 119.298-96.702 216-216 216z" fill="currentColor"/><path d="M384 170.922c-4.313 2.562-17.248 7.671-29.313 8.953 7.736-4.491 19.188-19.203 22.016-30.89-7.435 5.109-24.516 12.562-32.95 12.562 0 0 0 .023.016.039C334.141 150.75 320.608 144 305.577 144c-29.154 0-52.81 25.461-52.81 56.875 0 4.36.481 8.595 1.357 12.672h-.017c-39.562-1.094-85.811-22.446-111.874-59-16 29.852-2.156 63.046 16.015 75.141-6.203.516-17.671-.766-23.061-6.407-.375 19.797 8.484 46.048 40.735 55.563-6.221 3.61-17.19 2.579-21.984 1.781 1.687 16.75 23.437 38.623 47.202 38.623-8.47 10.534-37.373 29.706-73.141 23.596C152.298 358.782 180.625 368 210.608 368c85.205 0 151.376-74.359 147.814-166.093 0-.11-.031-.219-.031-.313 0-.25.031-.5.031-.719 0-.281-.031-.562-.031-.859 7.75-5.688 18.155-15.782 25.609-29.094z" fill="currentColor"/></svg></svg>